# Blender v3.0.1 OBJ File: ''
# www.blender.org
mtllib house.mtl
o Cube.001
v 0.000000 4.231250 -2.807176
v -2.807176 2.522361 -2.807176
v -2.807176 2.522361 2.807176
v 0.000000 4.231250 2.807176
v 0.000000 -3.091991 2.807176
v -2.807176 -3.091991 2.807176
v -2.807176 -3.091991 -2.807176
v 0.000000 -3.091991 -2.807176
v 2.807176 -3.091991 -2.807176
v 2.807176 -3.091991 2.807176
v 2.807176 2.522361 -2.807176
v 2.807176 2.522361 2.807176
vt 0.324542 0.438232
vt 0.324542 0.534340
vt 0.008791 0.534340
vt 0.008791 0.438232
vt 0.166667 0.420650
vt 0.166667 0.008791
vt 0.324542 0.104899
vt 0.324542 0.420650
vt 0.008791 0.850091
vt 0.324542 0.850091
vt 0.675458 0.324542
vt 0.675458 0.008791
vt 0.833333 0.008791
vt 0.991209 0.008791
vt 0.991209 0.324542
vt 0.657876 0.438232
vt 0.657876 0.753983
vt 0.342124 0.753983
vt 0.342124 0.438232
vt 0.500000 0.420650
vt 0.500000 0.008791
vt 0.657876 0.104899
vt 0.657876 0.420650
vt 0.342124 0.420650
vt 0.342124 0.104899
vt 0.008791 0.420650
vt 0.008791 0.104899
vt 0.657876 0.850091
vt 0.342124 0.850091
vn -0.5200 0.8542 0.0000
vn -0.0000 -0.0000 1.0000
vn -1.0000 0.0000 0.0000
vn 0.0000 -1.0000 -0.0000
vn 1.0000 -0.0000 0.0000
vn 0.0000 0.0000 -1.0000
vn 0.5200 0.8542 0.0000
usemtl Material.001
s 1
f 1/1/1 2/2/1 3/3/1 4/4/1
f 5/5/2 4/6/2 3/7/2 6/8/2
f 6/9/3 3/3/3 2/2/3 7/10/3
f 6/11/4 7/12/4 8/13/4 9/14/4 10/15/4
f 9/16/5 11/17/5 12/18/5 10/19/5
f 8/20/6 1/21/6 11/22/6 9/23/6
f 7/24/6 2/25/6 1/21/6 8/20/6
f 10/26/2 12/27/2 4/6/2 5/5/2
f 11/17/7 1/28/7 4/29/7 12/18/7
