# Blender v3.0.1 OBJ File: ''
# www.blender.org
mtllib skyscraper.mtl
o Cube.001_Cube.002
v 2.807176 8.571784 -2.807176
v 2.807176 -3.091991 -2.807176
v 2.807176 8.571784 2.807176
v 2.807176 -3.091991 2.807176
v -2.807176 8.571784 -2.807176
v -2.807176 -3.091991 -2.807176
v -2.807176 8.571784 2.807176
v -2.807176 -3.091991 2.807176
v 0.000000 -3.091991 -2.807176
v 0.000000 8.567877 2.807176
v 0.000000 -3.091991 2.807176
v 0.000000 8.567877 -2.807176
v 0.002811 10.587684 2.807176
v -2.804365 10.591590 2.807176
v -2.804365 10.591590 -2.807176
v 0.002811 10.587684 -2.807176
v -1.005959 10.589087 2.807176
v -0.877067 10.588908 -2.807176
v -0.982143 10.589054 1.769750
v 0.002811 10.587684 1.761743
v -2.804365 10.591590 1.784528
v -0.978475 10.589048 1.610000
v 0.002811 10.587684 1.600441
v -2.804365 10.591590 1.627781
v -0.820926 10.588830 1.768440
v -0.816603 10.588823 1.608423
v -0.697310 10.588657 -2.807176
v -0.848989 10.588869 2.807176
v -0.818685 12.198503 1.768435
v -0.979902 12.198727 1.769746
v -0.976234 12.198722 1.609995
v -0.814363 12.198497 1.608418
vt 0.625000 0.250000
vt 0.625000 0.000000
vt 0.625000 0.000000
vt 0.625000 0.045537
vt 0.625000 0.052517
vt 0.625000 0.250000
vt 0.375000 0.875000
vt 0.625000 0.875000
vt 0.625000 1.000000
vt 0.375000 1.000000
vt 0.375000 0.000000
vt 0.375000 0.250000
vt 0.250000 0.500000
vt 0.375000 0.500000
vt 0.375000 0.750000
vt 0.250000 0.750000
vt 0.625000 0.500000
vt 0.625000 0.750000
vt 0.375000 0.375000
vt 0.625000 0.375000
vt 0.125000 0.500000
vt 0.125000 0.750000
vt 0.750000 0.500000
vt 0.750000 0.750000
vt 0.750000 0.500000
vt 0.781175 0.500000
vt 0.786488 0.696621
vt 0.750000 0.696266
vt 0.750000 0.703448
vt 0.750000 0.750000
vt 0.625000 0.875000
vt 0.625000 0.912930
vt 0.625000 0.919919
vt 0.625000 1.000000
vt 0.625000 0.335820
vt 0.625000 0.343825
vt 0.625000 0.375000
vt 0.786680 0.703746
vt 0.786488 0.696621
vt 0.793695 0.696691
vt 0.793859 0.703805
vt 0.794919 0.750000
vt 0.793859 0.703805
vt 0.875000 0.704463
vt 0.875000 0.750000
vt 0.786680 0.703746
vt 0.787930 0.750000
vt 0.793695 0.696691
vt 0.875000 0.697483
vt 0.789180 0.500000
vt 0.875000 0.500000
vn -1.0000 0.0014 0.0000
vn 0.0000 0.0000 1.0000
vn -1.0000 0.0000 0.0000
vn 0.0000 -1.0000 0.0000
vn 1.0000 0.0000 0.0000
vn 0.0000 0.0000 -1.0000
vn -0.0014 1.0000 0.0000
vn 0.0014 1.0000 0.0000
vn 1.0000 -0.0014 0.0000
vn -0.9997 0.0014 -0.0230
vn 0.0081 -0.0000 1.0000
vn -0.0097 0.0000 -1.0000
vn 0.9996 -0.0014 0.0270
usemtl Material.002
s off
f 5/1/1 7/2/1 14/3/1 21/4/1 24/5/1 15/6/1
f 11/7/2 10/8/2 7/9/2 8/10/2
f 8/11/3 7/2/3 5/1/3 6/12/3
f 9/13/4 2/14/4 4/15/4 11/16/4
f 2/14/5 1/17/5 3/18/5 4/15/5
f 9/19/6 12/20/6 1/17/6 2/14/6
f 6/12/6 5/1/6 12/20/6 9/19/6
f 6/21/4 9/13/4 11/16/4 8/22/4
f 4/15/2 3/18/2 10/8/2 11/7/2
f 1/17/7 12/23/7 10/24/7 3/18/7
f 16/25/8 27/26/8 26/27/8 23/28/8
f 10/24/9 12/23/9 16/25/9 23/28/9 20/29/9 13/30/9
f 7/9/2 10/8/2 13/31/2 28/32/2 17/33/2 14/34/2
f 12/20/6 5/1/6 15/6/6 18/35/6 27/36/6 16/37/6
f 29/38/8 32/39/8 31/40/8 30/41/8
f 17/42/8 19/43/8 21/44/8 14/45/8
f 20/29/8 25/46/8 28/47/8 13/30/8
f 21/44/8 19/43/8 22/48/8 24/49/8
f 23/28/8 26/27/8 25/46/8 20/29/8
f 24/49/8 22/48/8 18/50/8 15/51/8
f 26/27/8 27/26/8 18/50/8 22/48/8
f 22/48/10 19/43/10 30/41/10 31/40/10
f 28/47/8 25/46/8 19/43/8 17/42/8
f 19/43/11 25/46/11 29/38/11 30/41/11
f 26/27/12 22/48/12 31/40/12 32/39/12
f 25/46/13 26/27/13 32/39/13 29/38/13
